# AST/ASF file generated using VICON BodyLanguage
# -----------------------------------------------
:version 1.10
:name VICON
:units
  mass 1.0
  length 0.45
  angle deg
:documentation
   .ast/.asf automatically generated from VICON data using
   VICON BodyBuilder and BodyLanguage model FoxedUp or BRILLIANT.MOD
:root
   order TX TY TZ RX RY RZ
   axis XYZ
   position 0 0 0  
   orientation 0 0 0 
:bonedata
  begin
     id 1 
     name lhipjoint
     direction 0.578396 -0.714046 0.394458 
     length 2.21935 
     axis 0 0 0  XYZ
  end
  begin
     id 2 
     name lfemur
     direction 0.34202 -0.939693 0  
     length 6.39105  
     axis 0 0 20  XYZ
    dof rx ry rz
    limits (-160.0 20.0)
           (-70.0 70.0)
           (-60.0 70.0)
  end
  begin
     id 3 
     name ltibia
     direction 0.34202 -0.939693 0   
     length 6.99037   
     axis 0 0 20   XYZ
    dof rx
    limits (-10.0 170.0)
  end
  begin
     id 4 
     name lfoot
     direction 0.0582372 -0.160005 0.985397   
     length 2.06111   
     axis -90 7.62852e-016 20   XYZ
    dof rx rz
    limits (-45.0 90.0)
           (-70.0 20.0)
  end
  begin
     id 5 
     name ltoes
     direction 1.53556e-011 -4.21875e-011 1   
     length 1.04074   
     axis -90 7.62852e-016 20   XYZ
    dof rx
    limits (-90.0 20.0)
  end
  begin
     id 6 
     name rhipjoint
     direction -0.558179 -0.726269 0.40121   
     length 2.182  
     axis 0 0 0  XYZ 
  end
  begin
     id 7 
     name rfemur
     direction -0.34202 -0.939693 0   
     length 6.51172   
     axis 0 0 -20   XYZ
    dof rx ry rz
    limits (-160.0 20.0)
           (-70.0 70.0)
           (-70.0 60.0)
  end
  begin
     id 8 
     name rtibia
     direction -0.34202 -0.939693 0   
     length 7.02607   
     axis 0 0 -20   XYZ
    dof rx
    limits (-10.0 170.0)
 end
 begin
     id 9 
     name rfoot
     direction -0.0788856 -0.216737 0.973038   
     length 1.96734  
     axis -90 -7.62852e-016 -20   XYZ
    dof rx rz
    limits (-45.0 90.0)
           (-20.0 70.0)
  end
  begin
     id 10 
     name rtoes
     direction -1.53567e-011 -4.21783e-011 1   
     length 0.990825   
     axis -90 -7.62852e-016 -20   XYZ
    dof rx
    limits (-90.0 20.0)
  end
  begin
     id 11 
     name lowerback
     direction 0.00668177 0.999323 -0.0361741   
     length 1.7655   
     axis 0 0 0   XYZ
    dof rx ry rz
    limits (-20.0 45.0)
           (-30.0 30.0)
           (-30.0 30.0)
  end
  begin
     id 12 
     name upperback
     direction -0.00222086 0.99851 0.0545167   
     length 1.74912   
     axis 0 0 0   XYZ
    dof rx ry rz
    limits (-20.0 45.0)
           (-30.0 30.0)
           (-30.0 30.0)
  end
  begin
     id 13 
     name thorax
     direction -0.00733971 0.997496 0.0703443   
     length 1.75715   
     axis 0 0 0   XYZ
    dof rx ry rz
    limits (-20.0 45.0)
           (-30.0 30.0)
           (-30.0 30.0)
  end
  begin
     id 14 
     name lowerneck
     direction 0.0279797 0.994795 0.0979765   
     length 1.46939   
     axis 0 0 0   XYZ
    dof rx ry rz
    limits (-20.0 45.0)
           (-30.0 30.0)
           (-30.0 30.0)
  end
  begin
     id 15 
     name upperneck
     direction 0.00339187 0.976776 -0.214238   
     length 1.48018   
     axis 0 0 0   XYZ
    dof rx ry rz
    limits (-20.0 45.0)
           (-30.0 30.0)
           (-30.0 30.0)
  end
  begin
     id 16
     name head
     direction -0.00263506 0.996603 -0.0823096  
     length 1.4976  
     axis 0 0 0   XYZ
    dof rx ry rz
    limits (-20.0 45.0)
           (-30.0 30.0)
           (-30.0 30.0)
  end
  begin
     id 17 
     name lclavicle
     direction 0.894044 0.44508 -0.0508781  
     length 3.03024  
     axis 0 0 0   XYZ
    dof ry rz
    limits (-20.0 10.0)
           (0.0 20.0)
  end
  begin
     id 18 
     name lhumerus
     direction 1 -4.48961e-011 -2.39475e-018   
     length 4.4661   
     axis 180 -30 -90   XYZ
    dof rx ry rz
    limits (-60.0 90.0)
           (-90.0 90.0)
           (-90.0 90.0)
  end
  begin
     id 19
     name lradius
     direction 1 -4.48961e-011 9.29328e-028   
     length 3.41414   
     axis 180 -30 -90   XYZ
    dof rx
    limits (-10.0 170.0)
  end
  begin
     id 20
     name lwrist
     direction 1 -4.48985e-011 1.53461e-026   
     length 1.70707   
     axis -1.09697e-014 90 90   XYZ
    dof ry
    limits (-180.0 0.0)
 end
  begin
     id 21 
     name lhand
     direction 1 -4.48966e-011 3.06923e-026   
     length 0.328298   
     axis -1.95843e-014 90 90   XYZ
    dof rx rz
    limits (-90.0 90.0)
           (-45.0 45.0)
  end
  begin
     id 22 
     name lfingers
     direction 1 -4.48893e-011 6.13845e-026   
     length 0.264682   
     axis -3.91686e-014 90 90   XYZ
    dof rx
    limits (0.0 90.0)
  end
  begin
     id 23
     name lthumb
     direction 0.707107 -6.34876e-011 0.707107   
     length 0.380032   
     axis -90 45 2.85299e-015   XYZ
    dof rx rz
    limits (-45.0 45.0)
           (-45.0 45.0)
  end
  begin
     id 24 
     name rclavicle
     direction -0.936955 0.347862 -0.0332887   
     length 3.26927  
     axis 0 0 0   XYZ 
    dof ry rz
    limits (-10.0 20.0)
           (-20.0 0.0)
  end
  begin
     id 25 
     name rhumerus
     direction -1 -4.4896e-011 1.78637e-018  
     length 4.40431   
     axis 180 30 90   XYZ
    dof rx ry rz
    limits (-90.0 60.0)
           (-90.0 90.0)
           (-90.0 90.0)
  end
  begin
     id 26 
     name rradius
     direction -1 -4.48955e-011 9.34036e-027   
     length 3.04688   
     axis 180 30 90   XYZ
    dof rx
    limits (-10.0 170.0)
  end
  begin
     id 27 
     name rwrist
     direction -1 -4.49011e-011 1.53461e-026   
     length 1.52344   
     axis -1.09697e-014 -90 -90   XYZ
    dof ry
    limits (-180.0 0.0)
  end
  begin
     id 28
     name rhand
     direction -1 -4.48834e-011 3.06923e-026   
     length 0.500489   
     axis -1.95843e-014 -90 -90   XYZ
    dof rx rz
    limits (-90.0 90.0)
           (-45.0 45.0)
  end
  begin
     id 29
     name rfingers
     direction -1 -4.48967e-011 6.13845e-026   
     length 0.403507   
     axis -3.91686e-014 -90 -90   XYZ
    dof rx
    limits (0.0 90.0)
  end
  begin
     id 30
     name rthumb
     direction -0.707107 -6.34826e-011 0.707107   
     length 0.579358   
     axis -90 -45 -2.85299e-015   XYZ
    dof rx rz
    limits (-45.0 45.0)
           (-45.0 45.0)
  end
:hierarchy
  begin
    root lhipjoint rhipjoint lowerback
    lhipjoint lfemur
    lfemur ltibia
    ltibia lfoot
    lfoot ltoes
    rhipjoint rfemur
    rfemur rtibia
    rtibia rfoot
    rfoot rtoes
    lowerback upperback
    upperback thorax
    thorax lowerneck lclavicle rclavicle
    lowerneck upperneck
    upperneck head
    lclavicle lhumerus
    lhumerus lradius
    lradius lwrist
    lwrist lhand lthumb
    lhand lfingers
    rclavicle rhumerus
    rhumerus rradius
    rradius rwrist
    rwrist rhand rthumb
    rhand rfingers
  end

#!OML:ASF H:\IndianDance\Patient Classification 1\Patient 1\Session 1\dancer.ASF
:FULLY-SPECIFIED
:DEGREES
968
root 37.6756 13.7379 12.11 363.613 23.2699 13.312
lowerback -2.96827 -1.59076 -2.86735
upperback -6.42421 -2.13084 -1.07727
thorax -4.91879 -0.93841 0.514076
lowerneck -14.4583 0.615137 1.79475
upperneck 21.8586 1.48261 -4.23113
head 9.31121 0.395692 -1.57277
rclavicle 7.07673e-014 4.6118e-014
rhumerus -6.94825 -11.2919 -35.6518
rradius 59.7153
rwrist -78.2183
rhand -49.4642 -20.3813
rfingers 7.12502
rthumb -22.0747 -49.1413
lclavicle 7.07673e-014 4.6118e-014
lhumerus 7.06479 -51.2576 21.6313
lradius 99.4086
lwrist 2.69692
lhand -38.957 15.9004
lfingers 7.12502
lthumb -11.9622 -314.461
rfemur -35.5951 -17.8549 41.9243
rtibia 43.0954
rfoot 5.31888 8.0128
rtoes 39.4352
lfemur -2.2971 23.5299 -37.6103
ltibia 52.7542
lfoot -18.0342 -16.4694
ltoes 21.9266
969
root 37.8604 13.7578 12.2101 363.505 24.6605 12.6777
lowerback -3.41916 -1.78599 -2.43347
upperback -6.42712 -2.35501 -0.624099
thorax -4.65572 -1.06097 0.728223
lowerneck -14.4745 0.430711 1.73661
upperneck 22.1106 1.33646 -4.58521
head 9.39934 0.282403 -1.70621
rclavicle 2.42517e-014 2.54444e-014
rhumerus -6.41164 -7.96594 -35.486
rradius 60.1853
rwrist -72.9383
rhand -48.707 -20.2633
rfingers 7.12502
rthumb -21.3476 -49.1074
lclavicle 2.42517e-014 2.54444e-014
lhumerus 8.78218 -51.7915 20.6298
lradius 99.7849
lwrist 0.594079
lhand -39.3148 14.3109
lfingers 7.12502
lthumb -12.3072 -316.071
rfemur -35.4037 -17.6681 41.854
rtibia 43.5472
rfoot 3.26424 6.14171
rtoes 38.8063
lfemur -0.842017 23.1022 -36.9782
ltibia 51.7543
lfoot -17.5345 -16.0623
ltoes 22.3208
970
root 38.0352 13.7836 12.3076 363.47 26.1353 12.0745
lowerback -3.90471 -1.98999 -2.07768
upperback -6.43404 -2.5961 -0.202592
thorax -4.37644 -1.1887 0.948018
lowerneck -14.4912 0.249501 1.69756
upperneck 22.2962 1.1749 -4.8848
head 9.46324 0.169736 -1.82584
rclavicle 2.26615e-014 -9.54166e-015
rhumerus -6.17072 -4.21566 -35.2503
rradius 61.4968
rwrist -67.84
rhand -47.6774 -19.9515
rfingers 7.12502
rthumb -20.3584 -48.9044
lclavicle 2.26615e-014 -9.54166e-015
lhumerus 10.4175 -52.2511 19.5744
lradius 100.418
lwrist -1.34103
lhand -39.4573 12.8362
lfingers 7.12502
lthumb -12.4446 -317.554
rfemur -35.3305 -17.5299 41.7501
rtibia 43.9683
rfoot 1.51294 4.41719
rtoes 38.0469
lfemur 0.548858 22.5283 -36.3897
ltibia 50.6514
lfoot -17.0028 -15.6051
ltoes 22.6989
971
root 38.2008 13.8019 12.4011 363.518 27.6805 11.5326
lowerback -4.41184 -2.20071 -1.82945
upperback -6.45161 -2.85047 0.182193
thorax -4.09363 -1.31862 1.18495
lowerneck -14.5293 0.077046 1.70458
upperneck 22.4495 1.00714 -5.16013
head 9.51918 0.0606227 -1.94585
rclavicle 4.65156e-014 2.70347e-014
rhumerus -6.10926 -0.263794 -34.9739
rradius 63.5067
rwrist -63.1665
rhand -46.3853 -19.2292
rfingers 7.12502
rthumb -19.1162 -48.3097
lclavicle 4.65156e-014 2.70347e-014
lhumerus 11.8656 -52.6372 18.5333
lradius 101.346
lwrist -3.15381
lhand -39.2984 11.3504
lfingers 7.12502
lthumb -12.2914 -319.031
rfemur -35.4531 -17.4489 41.6069
rtibia 44.4747
rfoot -0.00629854 2.90986
rtoes 37.1785
lfemur 1.83777 21.8424 -35.8827
ltibia 49.5245
lfoot -16.4528 -15.1208
ltoes 23.1887
972
root 38.3567 13.8365 12.494 363.656 29.2856 11.081
lowerback -4.90886 -2.41307 -1.70143
upperback -6.49308 -3.10981 0.52993
thorax -3.83748 -1.4459 1.44748
lowerneck -14.5883 -0.0866242 1.73401
upperneck 22.5933 0.839297 -5.40796
head 9.57515 -0.0437537 -2.06062
rclavicle -2.10712e-014 3.18055e-015
rhumerus -6.15859 3.76509 -34.6575
rradius 66.1051
rwrist -59.0294
rhand -44.8812 -17.8376
rfingers 7.12502
rthumb -17.6694 -47.0547
lclavicle -2.10712e-014 3.18055e-015
lhumerus 13.0166 -52.9683 17.6038
lradius 102.59
lwrist -4.80147
lhand -38.7876 9.65221
lfingers 7.12502
lthumb -11.7989 -320.7
rfemur -35.6416 -17.4837 41.357
rtibia 44.9789
rfoot -1.34368 1.69148
rtoes 36.1846
lfemur 3.09319 21.0759 -35.4408
ltibia 48.2693
lfoot -15.8166 -14.6397
ltoes 23.7279
973
root 38.5043 13.8749 12.5845 363.88 30.9509 10.7196
lowerback -5.37792 -2.62224 -1.67106
upperback -6.56031 -3.36601 0.840597
thorax -3.62009 -1.56756 1.72454
lowerneck -14.6867 -0.24044 1.78597
upperneck 22.7478 0.678348 -5.64724
head 9.64218 -0.142601 -2.17644
rclavicle 8.18993e-014 1.59028e-015
rhumerus -6.27624 7.73931 -34.333
rradius 69.1732
rwrist -55.3171
rhand -43.2425 -15.8157
rfingers 7.12502
rthumb -16.0919 -45.1676
lclavicle 8.18993e-014 1.59028e-015
lhumerus 13.807 -53.2529 16.8396
lradius 104.154
lwrist -6.22038
lhand -37.9442 7.82336
lfingers 7.12502
lthumb -10.9854 -322.484
rfemur -35.9365 -17.6305 41.0416
rtibia 45.5146
rfoot -2.51479 0.695281
rtoes 35.1737
lfemur 4.29534 20.2614 -35.0611
ltibia 46.9379
lfoot -15.1083 -14.166
ltoes 24.2919
974
root 38.6444 13.9169 12.6723 364.189 32.6638 10.4457
lowerback -5.79856 -2.81019 -1.71747
upperback -6.65932 -3.59396 1.11466
thorax -3.46057 -1.67165 2.00779
lowerneck -14.8431 -0.395464 1.85324
upperneck 22.9335 0.5148 -5.89136
head 9.7307 -0.24287 -2.29879
rclavicle 3.69739e-014 -1.74931e-014
rhumerus -6.45768 11.5691 -33.9952
rradius 72.5923
rwrist -51.8013
rhand -41.6231 -13.2307
rfingers 7.12502
rthumb -14.5321 -42.7017
lclavicle 3.69739e-014 -1.74931e-014
lhumerus 14.2204 -53.5175 16.2733
lradius 106.039
lwrist -7.32066
lhand -36.749 6.11368
lfingers 7.12502
lthumb -9.83246 -324.136
rfemur -36.302 -17.8873 40.689
rtibia 46.0206
rfoot -3.51657 -0.154286
rtoes 34.1531
lfemur 5.46455 19.4361 -34.7237
ltibia 45.4986
lfoot -14.3001 -13.7124
ltoes 24.8828
975
root 38.7773 13.9627 12.7575 364.582 34.4188 10.2638
lowerback -6.15948 -2.96766 -1.83529
upperback -6.78796 -3.78021 1.35689
thorax -3.36347 -1.75134 2.30148
lowerneck -15.0309 -0.554716 1.89335
upperneck 23.12 0.348869 -6.11927
head 9.82514 -0.345155 -2.41242
rclavicle -4.96962e-014 -3.97569e-014
rhumerus -6.70701 15.1577 -33.6568
rradius 76.2564
rwrist -48.2381
rhand -40.0238 -10.0428
rfingers 7.12502
rthumb -12.9907 -39.6183
lclavicle -4.96962e-014 -3.97569e-014
lhumerus 14.2197 -53.7717 15.9569
lradius 108.228
lwrist -7.99247
lhand -35.1735 4.85372
lfingers 7.12502
lthumb -8.31225 -325.33
rfemur -36.7294 -18.2293 40.3072
rtibia 46.5075
rfoot -4.38431 -0.943313
rtoes 33.2261
lfemur 6.59472 18.6283 -34.4097
ltibia 43.9918
lfoot -13.409 -13.3005
ltoes 25.3925
976
root 38.9033 14.0119 12.8402 365.065 36.2125 10.1758
lowerback -6.45638 -3.08249 -2.01037
upperback -6.94225 -3.90847 1.56002
thorax -3.32966 -1.79894 2.59233
lowerneck -15.2412 -0.729983 1.90531
upperneck 23.2804 0.161639 -6.32644
head 9.91341 -0.457558 -2.51729
rclavicle -7.35503e-014 -4.77083e-015
rhumerus -7.05483 18.4018 -33.3581
rradius 80.0754
rwrist -44.3399
rhand -38.295 -6.22289
rfingers 7.12502
rthumb -11.3238 -35.8972
lclavicle -7.35503e-014 -4.77083e-015
lhumerus 13.8121 -54.0111 15.8955
lradius 110.691
lwrist -8.12741
lhand -33.2508 3.87603
lfingers 7.12502
lthumb -6.45636 -326.242
rfemur -37.1919 -18.6244 39.9103
rtibia 46.9464
rfoot -5.13798 -1.75331
rtoes 32.3376
lfemur 7.68835 17.854 -34.1016
ltibia 42.4162
lfoot -12.4202 -12.9586
ltoes 25.875
977
root 39.0225 14.065 12.9207 365.65 38.0428 10.2034
lowerback -6.68795 -3.14989 -2.25378
upperback -7.11395 -3.97205 1.71492
thorax -3.35255 -1.81071 2.87829
lowerneck -15.4484 -0.928228 1.87714
upperneck 23.3745 -0.0606615 -6.49341
head 9.97559 -0.584662 -2.60478
rclavicle 8.38871e-014 6.36111e-014
rhumerus -7.52929 21.2341 -33.1402
rradius 83.9895
rwrist -39.9076
rhand -36.259 -1.80046
rfingers 7.12502
rthumb -9.3597 -31.5727
lclavicle 8.38871e-014 6.36111e-014
lhumerus 12.9882 -54.2094 16.1064
lradius 113.385
lwrist -7.6316
lhand -30.9524 3.09084
lfingers 7.12502
lthumb -4.23713 -326.972
rfemur -37.661 -19.0193 39.4742
rtibia 47.3168
rfoot -5.79597 -2.63905
rtoes 31.5411
lfemur 8.75191 17.1121 -33.8015
ltibia 40.7676
lfoot -11.3069 -12.714
ltoes 26.4135
978
root 39.136 14.1212 13.0002 366.357 39.9059 10.3882
lowerback -6.86321 -3.16651 -2.57822
upperback -7.2921 -3.96647 1.80144
thorax -3.41785 -1.78437 3.14555
lowerneck -15.627 -1.15255 1.8015
upperneck 23.3678 -0.328192 -6.59748
head 9.99413 -0.728605 -2.66527
rclavicle 2.10712e-014 3.18055e-015
rhumerus -8.17784 23.6059 -33.0508
rradius 87.9883
rwrist -34.8792
rhand -33.704 2.96958
rfingers 7.12502
rthumb -6.89381 -26.8982
lclavicle 2.10712e-014 3.18055e-015
lhumerus 11.7353 -54.3449 16.5936
lradius 116.236
lwrist -6.57753
lhand -28.3706 2.45343
lfingers 7.12502
lthumb -1.74388 -327.574
rfemur -38.1047 -19.3926 38.9563
rtibia 47.6107
rfoot -6.38201 -3.61172
rtoes 30.7746
lfemur 9.80778 16.4037 -33.5281
ltibia 39.044
lfoot -10.0797 -12.572
ltoes 26.881
979
root 39.244 14.18 13.0789 367.193 41.7997 10.7469
lowerback -6.97901 -3.13839 -2.97995
upperback -7.46451 -3.90091 1.81001
thorax -3.51621 -1.725 3.38158
lowerneck -15.7683 -1.39446 1.70407
upperneck 23.2448 -0.633529 -6.65121
head 9.9622 -0.884958 -2.70554
rclavicle 2.38542e-014 3.49861e-014
rhumerus -9.00457 25.5037 -33.1192
rradius 92.0556
rwrist -29.3074
rhand -30.4783 7.66178
rfingers 7.12502
rthumb -3.7794 -22.2845
lclavicle 2.38542e-014 3.49861e-014
lhumerus 10.0205 -54.3625 17.3653
lradius 119.181
lwrist -5.01668
lhand -25.522 1.82446
lfingers 7.12502
lthumb 1.00743 -328.198
rfemur -38.4981 -19.7089 38.336
rtibia 47.8264
rfoot -6.89697 -4.68945
rtoes 29.9329
lfemur 10.8618 15.7083 -33.2841
ltibia 37.2543
lfoot -8.7087 -12.5531
ltoes 27.4542
